<?xml version="1.0" encoding="UTF-8"?>
<svg width="132" height="99" version="1.1" viewBox="0 0 132 99.000001" xml:space="preserve" xmlns="http://www.w3.org/2000/svg" xmlns:cc="http://creativecommons.org/ns#" xmlns:dc="http://purl.org/dc/elements/1.1/" xmlns:rdf="http://www.w3.org/1999/02/22-rdf-syntax-ns#"><metadata><rdf:RDF><cc:Work rdf:about=""><dc:format>image/svg+xml</dc:format><dc:type rdf:resource="http://purl.org/dc/dcmitype/StillImage"/><dc:title/></cc:Work></rdf:RDF></metadata><rect width="100%" height="100%" fill="#fff"/><g transform="matrix(1.3333 0 0 -1.3333 0 99)"><g transform="matrix(.02653 0 0 .02653 .19403 9.6223)"><path d="m1709.1 230.02 2017.6-230.02-223.78 2023.8h-1793.8v-1793.8" fill="#ee2432"/><path d="m80.059 830.2v254.37h-80.059v103.62h80.059v240.17h353.25v-103.57h-240.2v-136.6h193.12v-103.62h-193.12v-254.37h-113.04" fill="#040606" fill-rule="evenodd"/><path d="m485.1 830.2v602.92h122.49v-602.92h-122.49" fill="#040606" fill-rule="evenodd"/><path d="m1078.6 830.2h-419.21v602.92h117.76v-499.3h202.49v80.07l98.952 4.74v-188.43" fill="#040606" fill-rule="evenodd"/><path d="m1625 830.2h-98.95v390.95l-150.75-131.86-150.7 131.86 4.7-390.95h-103.65v602.92l249.65-221.42 249.7 221.42v-602.92" fill="#040606" fill-rule="evenodd"/><path d="m3174.3 1042.1-119.33-210.97h-131.44l191.97 302.64-186.76 293.94h131.43l114.13-207.5 115.88 207.5h131.43l-185.03-293.94 190.22-302.64h-131.45l-121.05 210.97" fill="#fff" fill-rule="evenodd"/><path d="m2076.9 1093.1h-98.58v-159.12h98.58v-105.5h-209.23v264.62h-81.54l0.24 95.06h81.3l-0.05 242.12h209.28v-105.5h-98.58v-136.62h98.58zm3.48 0h-3.48v95.06h3.48c38.02 0 72.64 34.62 72.64 69.16 0 39.77-36.33 67.46-72.64 67.46h-3.48v105.5h3.48c146.98 0 185.02-117.62 185.02-171.22 0-27.69-10.37-77.82-62.26-110.67 55.36-15.56 95.14-70.88 95.14-140.07 0-41.49-36.33-179.84-216.19-179.84h-5.19v105.5h3.48c58.81 0 95.11 38.032 95.11 77.802 0 38.04-27.67 81.32-95.11 81.32" fill="#fff" fill-rule="evenodd"/><path d="m2654.8 935.68c-107.24 0-193.69 86.51-193.69 193.7 0 107.22 86.45 193.67 193.69 193.67v117.61h-3.46c-171.17 0-311.25-138.34-311.25-311.28 0-171.19 140.08-311.26 311.25-311.26h3.46zv-117.56c171.22 1.731 309.54 140.07 309.54 311.26 0 171.18-138.32 309.56-309.54 311.28v-117.61c107.23 0 193.7-86.45 193.7-193.67 0-107.19-86.47-193.7-193.7-193.7" fill="#fff" fill-rule="evenodd"/></g></g></svg>
